<?xml version="1.0" standalone="no"?>
<!DOCTYPE svg PUBLIC "-//W3C//DTD SVG 20010904//EN"
 "http://www.w3.org/TR/2001/REC-SVG-20010904/DTD/svg10.dtd">
<svg version="1.0" xmlns="http://www.w3.org/2000/svg"
 width="784.000000pt" height="784.000000pt" viewBox="0 0 784.000000 784.000000"
 preserveAspectRatio="xMidYMid meet">
<metadata>
Created by potrace 1.11, written by Peter Selinger 2001-2013
</metadata>
<g transform="translate(0.000000,784.000000) scale(0.100000,-0.100000)"
fill="#000000" stroke="none">
<path d="M3545 6873 c-11 -3 -24 -9 -29 -14 -6 -5 -17 -9 -26 -9 -49 0 -245
-176 -317 -284 -15 -23 -32 -46 -37 -51 -6 -6 -16 -19 -23 -30 -121 -198 -159
-265 -227 -405 -45 -91 -89 -183 -98 -205 -43 -100 -81 -194 -98 -240 -10 -27
-28 -75 -40 -105 -51 -133 -180 -528 -195 -600 -2 -8 -14 -55 -28 -105 -95
-342 -142 -612 -141 -810 0 -167 45 -230 209 -296 43 -17 163 -35 308 -45 92
-6 93 -5 78 42 -37 112 -44 410 -16 619 6 48 18 129 21 142 1 6 5 29 8 50 3
21 10 63 16 93 6 30 14 66 16 80 3 14 14 68 26 120 11 52 22 104 24 115 11 61
125 467 160 575 3 8 6 17 6 20 2 24 155 434 188 507 11 24 20 45 20 48 0 6
100 208 121 245 16 27 16 27 64 91 41 53 99 89 116 72 24 -24 31 -504 14 -998
-13 -379 -10 -593 11 -711 21 -122 68 -249 121 -333 32 -51 128 -151 142 -149
3 1 23 -7 44 -16 42 -18 122 -24 177 -12 49 11 97 42 150 95 105 105 183 315
450 1201 68 226 79 261 96 305 4 11 8 27 10 35 2 8 10 30 18 50 8 19 20 50 28
68 7 17 18 32 24 32 9 0 11 -73 9 -272 -2 -150 -6 -295 -9 -323 -3 -27 -8 -99
-11 -160 -3 -60 -8 -155 -12 -210 -13 -201 -7 -544 11 -625 3 -14 7 -39 10
-57 8 -57 48 -167 78 -210 58 -86 140 -124 248 -116 67 5 184 38 204 58 8 8
19 15 24 15 11 0 102 87 102 98 0 4 -20 37 -44 74 -48 73 -105 183 -111 214
-2 10 -4 19 -5 19 -3 0 -36 149 -44 205 -11 66 -20 155 -20 197 -1 24 -3 43
-6 43 -3 0 -5 17 -6 38 0 20 -4 89 -8 152 -11 172 -15 295 -21 610 -8 397 -12
433 -68 575 -38 96 -118 187 -180 203 -173 47 -309 -87 -452 -443 -15 -38 -33
-83 -40 -100 -7 -16 -31 -84 -54 -150 -23 -66 -57 -163 -76 -215 -32 -88 -96
-277 -247 -725 -63 -188 -77 -217 -80 -172 -1 15 -3 39 -4 55 -13 126 -18 218
-29 567 -3 88 -7 219 -10 290 -10 307 -32 544 -70 735 -14 75 -72 228 -105
278 -76 118 -150 164 -270 167 -41 1 -84 0 -95 -2z"/>
<path d="M5795 6305 c-82 -26 -118 -47 -171 -100 -58 -57 -92 -121 -99 -183
-2 -20 -5 -39 -6 -42 -2 -6 -2 -7 6 -60 12 -87 59 -158 148 -223 30 -23 89
-54 117 -62 3 -1 12 -4 20 -8 40 -15 119 -37 158 -43 23 -4 42 -9 42 -12 0 -3
-20 -47 -44 -97 -44 -91 -79 -185 -90 -240 -4 -16 -9 -41 -12 -55 -11 -50 -10
-186 2 -233 44 -170 196 -271 395 -262 195 9 434 167 644 425 68 83 175 240
175 256 0 7 4 14 9 16 15 6 80 152 91 205 9 41 9 58 -2 79 -18 38 -59 65 -99
67 -30 2 -35 -2 -63 -55 -31 -56 -137 -238 -166 -284 -26 -41 -114 -169 -125
-180 -5 -7 -21 -27 -35 -45 -23 -31 -138 -147 -174 -176 -36 -30 -103 -57
-150 -61 -45 -3 -54 -1 -76 23 -20 22 -25 38 -27 87 -2 92 36 187 153 380 85
139 108 195 109 255 0 41 -5 57 -25 78 -25 26 -94 63 -133 71 -11 2 -34 8 -51
13 -27 9 -166 36 -236 46 -14 2 -36 6 -50 9 -14 3 -37 8 -51 11 l-27 6 18 37
c50 103 70 198 57 263 -7 34 -58 98 -81 100 -63 7 -118 5 -151 -6z"/>
<path d="M7379 5096 c-2 -3 -16 -7 -30 -9 -51 -10 -132 -51 -175 -90 -74 -67
-96 -159 -62 -262 36 -109 110 -200 198 -243 151 -72 359 13 472 194 138 221
12 398 -293 410 -58 2 -108 2 -110 0z"/>
<path d="M1245 4109 c8 -27 62 -96 117 -151 47 -46 80 -53 206 -43 53 3 143 7
199 8 76 2 103 5 103 15 0 18 -28 61 -69 104 -55 59 -99 69 -328 72 -109 1
-206 6 -217 11 -16 7 -17 5 -11 -16z"/>
<path d="M3867 4114 c-1 -1 -24 -5 -52 -8 -85 -9 -127 -16 -215 -37 -47 -11
-92 -22 -100 -24 -8 -2 -49 -15 -90 -30 -156 -57 -321 -151 -360 -205 -42 -59
-13 -128 70 -165 l40 -18 28 24 c32 30 99 79 106 79 3 0 27 13 53 28 46 27 93
45 93 36 0 -3 -6 -15 -14 -27 -28 -44 -140 -390 -171 -527 -2 -8 -11 -46 -20
-85 -9 -38 -19 -81 -21 -95 -2 -14 -7 -36 -10 -50 -8 -34 -15 -70 -19 -100 -2
-14 -4 -25 -5 -25 -1 0 -3 -9 -5 -20 -1 -11 -10 -65 -19 -120 -8 -55 -18 -125
-21 -155 -3 -30 -8 -71 -11 -90 -16 -106 -22 -432 -10 -530 14 -120 18 -136
54 -205 18 -35 25 -42 72 -76 86 -64 231 -74 393 -29 40 12 44 21 23 62 -8 14
-19 43 -26 65 -6 21 -14 45 -17 53 -3 8 -7 22 -8 30 -2 8 -10 51 -18 95 -9 44
-18 104 -21 133 -4 28 -8 73 -11 100 -12 105 -6 492 9 607 2 17 7 59 11 95 6
60 37 261 50 320 3 14 8 38 11 55 24 132 99 362 161 492 33 69 33 73 19 107
-14 35 -14 36 7 37 12 1 38 3 57 4 49 4 174 7 180 4 3 -1 16 -2 30 -4 131 -10
250 -63 327 -144 104 -110 95 -318 -20 -469 -58 -77 -162 -162 -250 -205 -68
-33 -75 -34 -127 -25 -78 13 -153 12 -181 -3 -13 -7 -26 -12 -29 -12 -10 1
-36 -23 -53 -49 -36 -57 -9 -140 60 -180 29 -18 34 -18 70 -3 21 9 56 19 78
23 48 8 282 9 310 1 76 -22 143 -81 178 -159 21 -48 32 -205 16 -245 -7 -20
-14 -42 -19 -60 -5 -21 -61 -93 -95 -123 -70 -62 -152 -87 -280 -86 -115 2
-197 20 -272 61 -23 13 -49 23 -57 23 -35 0 -78 -74 -70 -123 5 -37 57 -109
102 -142 46 -34 153 -78 222 -91 50 -10 287 -10 338 -1 67 13 177 52 229 83
27 15 77 57 113 93 104 104 151 223 146 364 -5 120 -27 189 -94 290 -73 110
-175 190 -299 233 -29 10 -53 21 -53 24 0 3 19 11 43 18 68 22 195 89 266 142
290 214 336 527 109 736 -43 39 -141 111 -146 106 -1 -1 -15 4 -31 12 -63 33
-218 77 -314 91 -27 3 -59 9 -70 11 -23 5 -365 13 -370 8z"/>
<path d="M6461 4058 c-62 -24 -135 -90 -157 -145 -22 -51 -19 -143 5 -190 26
-51 75 -96 137 -127 29 -14 54 -26 57 -26 3 0 17 -4 31 -10 l25 -9 -41 -78
c-39 -73 -68 -119 -146 -235 -47 -68 -167 -193 -202 -210 -47 -23 -75 -13 -89
31 -10 36 -9 222 3 301 3 19 9 58 13 85 15 101 8 236 -14 286 -41 91 -97 121
-223 121 -119 -1 -126 -3 -121 -38 12 -84 2 -384 -15 -481 -9 -48 -104 -160
-173 -205 -47 -29 -85 -36 -97 -17 -19 32 -19 150 1 369 23 262 16 314 -53
367 l-42 32 -113 -3 c-61 -2 -127 -7 -144 -11 -31 -7 -32 -9 -25 -44 9 -49 7
-351 -3 -481 -20 -241 -10 -340 42 -421 46 -71 101 -97 213 -101 105 -3 221
56 337 171 l62 62 6 -28 c21 -95 93 -183 167 -204 151 -43 303 18 478 190 42
42 92 96 110 120 l34 44 11 -64 c16 -99 61 -161 145 -198 202 -89 464 59 697
393 24 34 43 66 43 73 0 6 4 13 8 15 12 5 61 114 71 159 8 34 6 44 -12 65 -12
13 -36 28 -53 33 -34 10 -26 19 -94 -104 -45 -81 -74 -130 -81 -135 -3 -3 -12
-16 -19 -29 -7 -14 -17 -30 -21 -35 -5 -6 -33 -42 -62 -80 -113 -150 -194
-205 -289 -197 -42 3 -52 93 -20 178 11 29 47 99 80 155 75 129 91 165 94 205
3 39 -22 69 -79 95 -42 19 -185 51 -278 64 -27 3 -52 8 -54 10 -3 2 6 30 19
62 17 39 24 77 25 119 0 54 -4 66 -25 88 -35 35 -98 40 -169 13z"/>
<path d="M2591 3308 c-97 -17 -166 -74 -177 -148 -12 -75 69 -206 142 -230 80
-27 172 1 243 72 62 61 92 161 65 213 -37 71 -160 113 -273 93z"/>
<path d="M1361 3208 c-47 -16 -99 -35 -116 -42 -74 -33 -158 -72 -255 -118
-242 -115 -460 -157 -622 -121 -50 11 -88 10 -88 -3 0 -11 50 -74 95 -120 100
-101 239 -176 371 -198 68 -12 190 -6 262 13 20 6 49 12 64 15 34 6 178 80
206 106 12 11 24 20 28 20 3 0 27 20 52 45 52 51 65 46 53 -20 -17 -95 -69
-168 -151 -215 -37 -21 25 -40 130 -40 137 0 213 43 355 205 44 50 100 107
125 126 25 18 47 36 50 39 14 14 54 30 90 36 23 4 40 12 40 20 0 7 -21 28 -47
45 -27 18 -50 35 -53 39 -26 31 -272 154 -332 165 -11 2 -27 6 -36 9 -85 26
-129 24 -221 -6z"/>
<path d="M6756 2568 c-53 -11 -110 -59 -137 -115 -50 -102 -3 -205 117 -260
30 -13 60 -26 67 -27 40 -8 77 -18 77 -23 0 -11 -91 -161 -115 -190 -5 -6 -21
-26 -35 -44 -69 -92 -174 -182 -255 -219 -72 -34 -145 -34 -199 -1 -30 19 -73
69 -64 75 2 1 25 19 51 40 139 110 198 219 193 355 -4 155 -100 245 -251 234
-66 -4 -72 -6 -127 -30 -72 -33 -140 -107 -185 -202 -29 -63 -44 -83 -63 -88
-14 -3 -61 -21 -104 -40 -43 -18 -80 -32 -82 -30 -2 2 -6 21 -9 43 -11 78 -34
123 -73 143 -47 23 -86 20 -153 -14 l-54 -26 -1 -57 c-1 -100 -85 -200 -130
-155 -20 21 -15 109 10 178 13 33 49 99 63 113 7 7 13 17 13 22 0 9 68 54 87
56 7 1 24 -9 37 -23 18 -18 31 -23 43 -18 10 5 26 10 36 11 34 7 86 49 90 74
13 66 -52 110 -162 110 -123 0 -244 -54 -341 -150 -77 -78 -100 -106 -100
-123 0 -8 -3 -17 -7 -21 -21 -20 -41 -102 -41 -164 0 -68 16 -142 30 -142 5 0
8 -6 8 -14 0 -20 59 -65 100 -76 81 -21 176 1 250 60 74 59 34 2 -71 -102 -58
-56 -119 -121 -135 -143 -16 -22 -31 -42 -34 -45 -16 -14 -70 -113 -93 -170
-70 -178 -51 -327 49 -386 86 -51 204 -42 297 23 140 97 263 396 282 689 8
111 12 155 17 159 12 12 161 85 173 85 8 0 15 -8 15 -17 2 -71 21 -145 57
-216 25 -51 126 -157 149 -157 8 0 14 -3 14 -8 0 -10 70 -39 127 -53 195 -47
372 17 567 202 l59 57 22 -32 c19 -28 77 -65 116 -74 24 -6 97 -4 121 3 125
34 271 154 370 303 21 31 41 62 46 67 4 6 21 36 37 69 33 68 37 120 9 141 -31
22 -55 25 -61 7 -4 -9 -9 -19 -13 -22 -3 -3 -21 -32 -39 -65 -124 -221 -256
-365 -337 -365 -36 0 -51 14 -58 54 -7 39 18 106 79 212 84 146 91 185 37 222
-26 17 -94 38 -157 47 -16 2 -41 7 -55 10 -14 4 -34 8 -45 9 -11 2 -23 4 -27
5 -4 0 1 23 11 49 54 137 10 207 -113 180z m-499 -375 c15 -42 6 -102 -23
-158 -24 -48 -67 -105 -79 -105 -9 0 -6 80 4 99 5 9 6 23 2 30 -21 33 38 161
74 161 7 0 17 -12 22 -27z m-902 -650 c-3 -32 -8 -67 -10 -78 -3 -11 -7 -32
-10 -47 -12 -67 -17 -87 -35 -156 -37 -133 -81 -205 -122 -194 -56 14 -18 225
68 373 34 58 104 158 112 159 2 0 1 -26 -3 -57z"/>
<path d="M2310 2255 c-25 -7 -85 -28 -135 -47 -276 -109 -435 -150 -577 -152
-66 -1 -111 -5 -119 -13 -8 -8 -5 -13 12 -18 13 -4 47 -17 74 -30 95 -43 243
-94 311 -109 41 -9 107 -13 164 -12 86 3 106 8 211 50 64 25 154 67 200 92 46
25 121 63 166 85 75 36 81 42 74 62 -10 27 -94 71 -176 92 -70 18 -143 18
-205 0z"/>
<path d="M4217 1574 c-98 -25 -157 -92 -152 -170 5 -90 84 -192 163 -211 118
-29 258 71 292 207 13 54 4 86 -37 124 -54 50 -177 73 -266 50z"/>
<path d="M2905 1298 c-16 -6 -55 -28 -86 -49 -32 -21 -76 -46 -99 -55 l-42
-17 25 -14 c85 -44 254 -51 332 -13 51 25 102 95 84 116 -28 34 -157 53 -214
32z"/>
</g>
</svg>
